<svg width="96" height="96" viewBox="0 0 96 96" fill="none" xmlns="http://www.w3.org/2000/svg">
<path fill-rule="evenodd" clip-rule="evenodd" d="M0 48C0 21.4903 21.4903 0 48 0C74.5097 0 96 21.4903 96 48C96 74.5097 74.5097 96 48 96C21.4903 96 0 74.5097 0 48ZM42.9838 35.7674L30.7585 23.5433H23.6941V30.1248L36.506 42.9354H18.2832L13.6296 47.5896L18.5331 52.493H36.2569L41.1604 47.5896L36.5062 42.9355H42.9839V35.7676L47.742 40.5255L52.6328 35.635V42.5944H59.5684L59.5686 42.5944L54.5731 47.5896L59.4037 52.42H76.8165L81.6462 47.5896L76.6508 42.5944H59.5686L71.7892 30.374V23.5433H64.7249L52.6328 35.635L52.6328 18.5774L47.6374 13.5821L42.9838 18.2363V35.7674ZM23.6941 65.0545L36.2568 52.493H42.7339V59.5315L30.629 71.6368H23.6941V65.0545ZM52.4683 59.2501L64.8554 71.6368H71.7895V64.8061L59.4037 52.42H52.4681V59.2498L47.7424 54.5242L42.7342 59.5315V76.6937L47.6377 81.5971L52.4683 76.7668V59.2501Z" fill="white"/>
</svg>
